<mxfile host="Electron" modified="2024-01-29T05:53:07.872Z" agent="Mozilla/5.0 (Windows NT 10.0; Win64; x64) AppleWebKit/537.36 (KHTML, like Gecko) draw.io/23.0.2 Chrome/120.0.6099.109 Electron/28.1.0 Safari/537.36" etag="Dxnp6geKdypfBhqpXBKl" version="23.0.2" type="device">
  <diagram id="WJyscbuYa-h5bWt6lplz" name="第 1 页">
    <mxGraphModel dx="1434" dy="836" grid="1" gridSize="10" guides="1" tooltips="1" connect="1" arrows="1" fold="1" page="1" pageScale="1" pageWidth="827" pageHeight="400" math="1" shadow="0">
      <root>
        <mxCell id="0" />
        <mxCell id="1" parent="0" />
        <mxCell id="kqCt5Rrw21ZmypZW0xoj-447" value="" style="endArrow=none;dashed=1;html=1;dashPattern=1 3;strokeWidth=2;rounded=0;" parent="1" edge="1">
          <mxGeometry width="50" height="50" relative="1" as="geometry">
            <mxPoint x="160" y="120" as="sourcePoint" />
            <mxPoint x="580" y="120" as="targetPoint" />
          </mxGeometry>
        </mxCell>
        <mxCell id="kqCt5Rrw21ZmypZW0xoj-448" value="" style="endArrow=none;dashed=1;html=1;dashPattern=1 3;strokeWidth=2;rounded=0;" parent="1" edge="1">
          <mxGeometry width="50" height="50" relative="1" as="geometry">
            <mxPoint x="160" y="180" as="sourcePoint" />
            <mxPoint x="580" y="180" as="targetPoint" />
          </mxGeometry>
        </mxCell>
        <mxCell id="kqCt5Rrw21ZmypZW0xoj-449" value="" style="endArrow=none;dashed=1;html=1;dashPattern=1 3;strokeWidth=2;rounded=0;" parent="1" edge="1">
          <mxGeometry width="50" height="50" relative="1" as="geometry">
            <mxPoint x="160" y="240" as="sourcePoint" />
            <mxPoint x="580" y="240.5" as="targetPoint" />
          </mxGeometry>
        </mxCell>
        <mxCell id="kqCt5Rrw21ZmypZW0xoj-337" value="" style="rounded=0;whiteSpace=wrap;html=1;fillColor=#f8cecc;strokeColor=#000000;" parent="1" vertex="1">
          <mxGeometry x="299" y="60" width="40" height="15" as="geometry" />
        </mxCell>
        <mxCell id="kqCt5Rrw21ZmypZW0xoj-338" value="" style="rounded=0;whiteSpace=wrap;html=1;strokeColor=#000000;" parent="1" vertex="1">
          <mxGeometry x="299" y="75" width="40" height="15" as="geometry" />
        </mxCell>
        <mxCell id="kqCt5Rrw21ZmypZW0xoj-339" value="" style="rounded=0;whiteSpace=wrap;html=1;strokeColor=#000000;" parent="1" vertex="1">
          <mxGeometry x="299" y="90" width="40" height="15" as="geometry" />
        </mxCell>
        <mxCell id="kqCt5Rrw21ZmypZW0xoj-340" value="" style="rounded=0;whiteSpace=wrap;html=1;strokeColor=#000000;" parent="1" vertex="1">
          <mxGeometry x="299" y="105" width="40" height="15" as="geometry" />
        </mxCell>
        <mxCell id="kqCt5Rrw21ZmypZW0xoj-341" value="" style="rounded=0;whiteSpace=wrap;html=1;strokeColor=#000000;" parent="1" vertex="1">
          <mxGeometry x="299" y="120" width="40" height="15" as="geometry" />
        </mxCell>
        <mxCell id="kqCt5Rrw21ZmypZW0xoj-344" value="" style="rounded=0;whiteSpace=wrap;html=1;strokeColor=#000000;" parent="1" vertex="1">
          <mxGeometry x="299" y="135" width="40" height="15" as="geometry" />
        </mxCell>
        <mxCell id="kqCt5Rrw21ZmypZW0xoj-345" value="" style="rounded=0;whiteSpace=wrap;html=1;strokeColor=#000000;" parent="1" vertex="1">
          <mxGeometry x="299" y="150" width="40" height="15" as="geometry" />
        </mxCell>
        <mxCell id="kqCt5Rrw21ZmypZW0xoj-346" value="" style="rounded=0;whiteSpace=wrap;html=1;fillColor=#f8cecc;strokeColor=#000000;" parent="1" vertex="1">
          <mxGeometry x="299" y="165" width="40" height="15" as="geometry" />
        </mxCell>
        <mxCell id="kqCt5Rrw21ZmypZW0xoj-347" value="" style="rounded=0;whiteSpace=wrap;html=1;strokeColor=#000000;" parent="1" vertex="1">
          <mxGeometry x="299" y="180" width="40" height="15" as="geometry" />
        </mxCell>
        <mxCell id="kqCt5Rrw21ZmypZW0xoj-349" value="" style="rounded=0;whiteSpace=wrap;html=1;strokeColor=#000000;" parent="1" vertex="1">
          <mxGeometry x="299" y="195" width="40" height="15" as="geometry" />
        </mxCell>
        <mxCell id="kqCt5Rrw21ZmypZW0xoj-350" value="" style="rounded=0;whiteSpace=wrap;html=1;strokeColor=#000000;" parent="1" vertex="1">
          <mxGeometry x="299" y="210" width="40" height="15" as="geometry" />
        </mxCell>
        <mxCell id="kqCt5Rrw21ZmypZW0xoj-351" value="" style="rounded=0;whiteSpace=wrap;html=1;strokeColor=#000000;" parent="1" vertex="1">
          <mxGeometry x="299" y="225" width="40" height="15" as="geometry" />
        </mxCell>
        <mxCell id="kqCt5Rrw21ZmypZW0xoj-353" value="" style="rounded=0;whiteSpace=wrap;html=1;strokeColor=#000000;" parent="1" vertex="1">
          <mxGeometry x="299" y="240.5" width="40" height="15" as="geometry" />
        </mxCell>
        <mxCell id="kqCt5Rrw21ZmypZW0xoj-354" value="" style="rounded=0;whiteSpace=wrap;html=1;fillColor=#f8cecc;strokeColor=#000000;" parent="1" vertex="1">
          <mxGeometry x="299" y="255.5" width="40" height="15" as="geometry" />
        </mxCell>
        <mxCell id="kqCt5Rrw21ZmypZW0xoj-355" value="" style="rounded=0;whiteSpace=wrap;html=1;strokeColor=#000000;" parent="1" vertex="1">
          <mxGeometry x="299" y="270.5" width="40" height="15" as="geometry" />
        </mxCell>
        <mxCell id="kqCt5Rrw21ZmypZW0xoj-356" value="" style="rounded=0;whiteSpace=wrap;html=1;strokeColor=#000000;" parent="1" vertex="1">
          <mxGeometry x="299" y="285.5" width="40" height="15" as="geometry" />
        </mxCell>
        <mxCell id="kqCt5Rrw21ZmypZW0xoj-411" value="" style="rounded=0;whiteSpace=wrap;html=1;fillColor=#f8cecc;strokeColor=#000000;" parent="1" vertex="1">
          <mxGeometry x="499" y="60" width="40" height="15" as="geometry" />
        </mxCell>
        <mxCell id="kqCt5Rrw21ZmypZW0xoj-412" value="" style="rounded=0;whiteSpace=wrap;html=1;strokeColor=#000000;" parent="1" vertex="1">
          <mxGeometry x="499" y="75" width="40" height="15" as="geometry" />
        </mxCell>
        <mxCell id="kqCt5Rrw21ZmypZW0xoj-413" value="" style="rounded=0;whiteSpace=wrap;html=1;strokeColor=#000000;" parent="1" vertex="1">
          <mxGeometry x="499" y="90" width="40" height="15" as="geometry" />
        </mxCell>
        <mxCell id="kqCt5Rrw21ZmypZW0xoj-414" value="" style="rounded=0;whiteSpace=wrap;html=1;strokeColor=#000000;" parent="1" vertex="1">
          <mxGeometry x="499" y="105" width="40" height="15" as="geometry" />
        </mxCell>
        <mxCell id="kqCt5Rrw21ZmypZW0xoj-415" value="" style="rounded=0;whiteSpace=wrap;html=1;strokeColor=#000000;" parent="1" vertex="1">
          <mxGeometry x="499" y="120" width="40" height="15" as="geometry" />
        </mxCell>
        <mxCell id="kqCt5Rrw21ZmypZW0xoj-418" value="" style="rounded=0;whiteSpace=wrap;html=1;strokeColor=#000000;" parent="1" vertex="1">
          <mxGeometry x="499" y="135" width="40" height="15" as="geometry" />
        </mxCell>
        <mxCell id="kqCt5Rrw21ZmypZW0xoj-419" value="" style="rounded=0;whiteSpace=wrap;html=1;strokeColor=#000000;" parent="1" vertex="1">
          <mxGeometry x="499" y="150" width="40" height="15" as="geometry" />
        </mxCell>
        <mxCell id="kqCt5Rrw21ZmypZW0xoj-420" value="" style="rounded=0;whiteSpace=wrap;html=1;fillColor=#f8cecc;strokeColor=#000000;" parent="1" vertex="1">
          <mxGeometry x="499" y="165" width="40" height="15" as="geometry" />
        </mxCell>
        <mxCell id="kqCt5Rrw21ZmypZW0xoj-421" value="" style="rounded=0;whiteSpace=wrap;html=1;strokeColor=#000000;" parent="1" vertex="1">
          <mxGeometry x="499" y="180" width="40" height="15" as="geometry" />
        </mxCell>
        <mxCell id="kqCt5Rrw21ZmypZW0xoj-423" value="" style="rounded=0;whiteSpace=wrap;html=1;strokeColor=#000000;" parent="1" vertex="1">
          <mxGeometry x="499" y="195" width="40" height="15" as="geometry" />
        </mxCell>
        <mxCell id="kqCt5Rrw21ZmypZW0xoj-424" value="" style="rounded=0;whiteSpace=wrap;html=1;strokeColor=#000000;" parent="1" vertex="1">
          <mxGeometry x="499" y="210" width="40" height="15" as="geometry" />
        </mxCell>
        <mxCell id="kqCt5Rrw21ZmypZW0xoj-425" value="" style="rounded=0;whiteSpace=wrap;html=1;fillColor=#dae8fc;strokeColor=#000000;" parent="1" vertex="1">
          <mxGeometry x="499" y="225" width="40" height="15" as="geometry" />
        </mxCell>
        <mxCell id="kqCt5Rrw21ZmypZW0xoj-427" value="" style="rounded=0;whiteSpace=wrap;html=1;strokeColor=#000000;" parent="1" vertex="1">
          <mxGeometry x="499" y="240.5" width="40" height="15" as="geometry" />
        </mxCell>
        <mxCell id="kqCt5Rrw21ZmypZW0xoj-428" value="" style="rounded=0;whiteSpace=wrap;html=1;fillColor=#f8cecc;strokeColor=#000000;" parent="1" vertex="1">
          <mxGeometry x="499" y="255.5" width="40" height="15" as="geometry" />
        </mxCell>
        <mxCell id="kqCt5Rrw21ZmypZW0xoj-429" value="" style="rounded=0;whiteSpace=wrap;html=1;strokeColor=#000000;" parent="1" vertex="1">
          <mxGeometry x="499" y="270.5" width="40" height="15" as="geometry" />
        </mxCell>
        <mxCell id="kqCt5Rrw21ZmypZW0xoj-430" value="" style="rounded=0;whiteSpace=wrap;html=1;strokeColor=#000000;" parent="1" vertex="1">
          <mxGeometry x="499" y="285.5" width="40" height="15" as="geometry" />
        </mxCell>
        <mxCell id="kqCt5Rrw21ZmypZW0xoj-374" value="" style="rounded=0;whiteSpace=wrap;html=1;strokeColor=#000000;" parent="1" vertex="1">
          <mxGeometry x="399" y="60" width="40" height="15" as="geometry" />
        </mxCell>
        <mxCell id="kqCt5Rrw21ZmypZW0xoj-375" value="" style="rounded=0;whiteSpace=wrap;html=1;strokeColor=#000000;" parent="1" vertex="1">
          <mxGeometry x="399" y="75" width="40" height="15" as="geometry" />
        </mxCell>
        <mxCell id="kqCt5Rrw21ZmypZW0xoj-376" value="" style="rounded=0;whiteSpace=wrap;html=1;strokeColor=#000000;" parent="1" vertex="1">
          <mxGeometry x="399" y="90" width="40" height="15" as="geometry" />
        </mxCell>
        <mxCell id="kqCt5Rrw21ZmypZW0xoj-377" value="" style="rounded=0;whiteSpace=wrap;html=1;strokeColor=#000000;" parent="1" vertex="1">
          <mxGeometry x="399" y="105" width="40" height="15" as="geometry" />
        </mxCell>
        <mxCell id="kqCt5Rrw21ZmypZW0xoj-378" value="" style="rounded=0;whiteSpace=wrap;html=1;strokeColor=#000000;" parent="1" vertex="1">
          <mxGeometry x="399" y="120" width="40" height="15" as="geometry" />
        </mxCell>
        <mxCell id="kqCt5Rrw21ZmypZW0xoj-381" value="" style="rounded=0;whiteSpace=wrap;html=1;strokeColor=#000000;" parent="1" vertex="1">
          <mxGeometry x="399" y="135" width="40" height="15" as="geometry" />
        </mxCell>
        <mxCell id="kqCt5Rrw21ZmypZW0xoj-382" value="" style="rounded=0;whiteSpace=wrap;html=1;strokeColor=#000000;" parent="1" vertex="1">
          <mxGeometry x="399" y="150" width="40" height="15" as="geometry" />
        </mxCell>
        <mxCell id="kqCt5Rrw21ZmypZW0xoj-383" value="" style="rounded=0;whiteSpace=wrap;html=1;strokeColor=#000000;" parent="1" vertex="1">
          <mxGeometry x="399" y="165" width="40" height="15" as="geometry" />
        </mxCell>
        <mxCell id="kqCt5Rrw21ZmypZW0xoj-384" value="" style="rounded=0;whiteSpace=wrap;html=1;strokeColor=#000000;" parent="1" vertex="1">
          <mxGeometry x="399" y="180" width="40" height="15" as="geometry" />
        </mxCell>
        <mxCell id="kqCt5Rrw21ZmypZW0xoj-386" value="" style="rounded=0;whiteSpace=wrap;html=1;strokeColor=#000000;" parent="1" vertex="1">
          <mxGeometry x="399" y="195" width="40" height="15" as="geometry" />
        </mxCell>
        <mxCell id="kqCt5Rrw21ZmypZW0xoj-387" value="" style="rounded=0;whiteSpace=wrap;html=1;strokeColor=#000000;" parent="1" vertex="1">
          <mxGeometry x="399" y="210" width="40" height="15" as="geometry" />
        </mxCell>
        <mxCell id="kqCt5Rrw21ZmypZW0xoj-388" value="" style="rounded=0;whiteSpace=wrap;html=1;fillColor=#dae8fc;strokeColor=#000000;" parent="1" vertex="1">
          <mxGeometry x="399" y="225" width="40" height="15" as="geometry" />
        </mxCell>
        <mxCell id="kqCt5Rrw21ZmypZW0xoj-390" value="" style="rounded=0;whiteSpace=wrap;html=1;strokeColor=#000000;" parent="1" vertex="1">
          <mxGeometry x="399" y="240.5" width="40" height="15" as="geometry" />
        </mxCell>
        <mxCell id="kqCt5Rrw21ZmypZW0xoj-391" value="" style="rounded=0;whiteSpace=wrap;html=1;strokeColor=#000000;" parent="1" vertex="1">
          <mxGeometry x="399" y="255.5" width="40" height="15" as="geometry" />
        </mxCell>
        <mxCell id="kqCt5Rrw21ZmypZW0xoj-392" value="" style="rounded=0;whiteSpace=wrap;html=1;strokeColor=#000000;" parent="1" vertex="1">
          <mxGeometry x="399" y="270.5" width="40" height="15" as="geometry" />
        </mxCell>
        <mxCell id="kqCt5Rrw21ZmypZW0xoj-393" value="" style="rounded=0;whiteSpace=wrap;html=1;strokeColor=#000000;" parent="1" vertex="1">
          <mxGeometry x="399" y="285.5" width="40" height="15" as="geometry" />
        </mxCell>
        <mxCell id="kqCt5Rrw21ZmypZW0xoj-59" value="&lt;font style=&quot;font-size: 20px;&quot;&gt;Hint&lt;/font&gt;" style="text;html=1;align=center;verticalAlign=middle;resizable=0;points=[];autosize=1;strokeColor=none;fillColor=none;" parent="1" vertex="1">
          <mxGeometry x="190" y="300.5" width="60" height="40" as="geometry" />
        </mxCell>
        <mxCell id="kqCt5Rrw21ZmypZW0xoj-60" value="&lt;font style=&quot;font-size: 20px;&quot;&gt;&lt;svg style=&quot;vertical-align: -0.025ex;&quot; xmlns:xlink=&quot;http://www.w3.org/1999/xlink&quot; viewBox=&quot;0 -661 345 672&quot; role=&quot;img&quot; height=&quot;1.52ex&quot; width=&quot;0.781ex&quot; xmlns=&quot;http://www.w3.org/2000/svg&quot;&gt;&lt;defs&gt;&lt;path d=&quot;M184 600Q184 624 203 642T247 661Q265 661 277 649T290 619Q290 596 270 577T226 557Q211 557 198 567T184 600ZM21 287Q21 295 30 318T54 369T98 420T158 442Q197 442 223 419T250 357Q250 340 236 301T196 196T154 83Q149 61 149 51Q149 26 166 26Q175 26 185 29T208 43T235 78T260 137Q263 149 265 151T282 153Q302 153 302 143Q302 135 293 112T268 61T223 11T161 -11Q129 -11 102 10T74 74Q74 91 79 106T122 220Q160 321 166 341T173 380Q173 404 156 404H154Q124 404 99 371T61 287Q60 286 59 284T58 281T56 279T53 278T49 278T41 278H27Q21 284 21 287Z&quot; id=&quot;MJX-3-TEX-I-1D456&quot;&gt;&lt;/path&gt;&lt;/defs&gt;&lt;g transform=&quot;scale(1,-1)&quot; stroke-width=&quot;0&quot; fill=&quot;currentColor&quot; stroke=&quot;currentColor&quot;&gt;&lt;g data-mml-node=&quot;math&quot;&gt;&lt;g data-mml-node=&quot;mi&quot;&gt;&lt;use xlink:href=&quot;#MJX-3-TEX-I-1D456&quot; data-c=&quot;1D456&quot;&gt;&lt;/use&gt;&lt;/g&gt;&lt;/g&gt;&lt;/g&gt;&lt;/svg&gt;-Removed&lt;/font&gt;" style="text;html=1;align=center;verticalAlign=middle;resizable=0;points=[];autosize=1;strokeColor=none;fillColor=none;" parent="1" vertex="1">
          <mxGeometry x="259" y="300.5" width="120" height="40" as="geometry" />
        </mxCell>
        <mxCell id="kqCt5Rrw21ZmypZW0xoj-62" value="&lt;font style=&quot;font-size: 20px;&quot;&gt;Query&lt;/font&gt;" style="text;html=1;align=center;verticalAlign=middle;resizable=0;points=[];autosize=1;strokeColor=none;fillColor=none;" parent="1" vertex="1">
          <mxGeometry x="479" y="300.5" width="80" height="40" as="geometry" />
        </mxCell>
        <mxCell id="kqCt5Rrw21ZmypZW0xoj-446" value="&lt;font style=&quot;font-size: 20px;&quot;&gt;Crumb&lt;/font&gt;" style="text;html=1;align=center;verticalAlign=middle;resizable=0;points=[];autosize=1;strokeColor=none;fillColor=none;" parent="1" vertex="1">
          <mxGeometry x="379" y="300.5" width="80" height="40" as="geometry" />
        </mxCell>
        <mxCell id="kqCt5Rrw21ZmypZW0xoj-257" value="" style="rounded=0;whiteSpace=wrap;html=1;fillColor=#f8cecc;strokeColor=#000000;" parent="1" vertex="1">
          <mxGeometry x="200" y="60" width="40" height="15" as="geometry" />
        </mxCell>
        <mxCell id="kqCt5Rrw21ZmypZW0xoj-258" value="" style="rounded=0;whiteSpace=wrap;html=1;strokeColor=#000000;" parent="1" vertex="1">
          <mxGeometry x="200" y="75" width="40" height="15" as="geometry" />
        </mxCell>
        <mxCell id="kqCt5Rrw21ZmypZW0xoj-259" value="" style="rounded=0;whiteSpace=wrap;html=1;strokeColor=#000000;" parent="1" vertex="1">
          <mxGeometry x="200" y="90" width="40" height="15" as="geometry" />
        </mxCell>
        <mxCell id="kqCt5Rrw21ZmypZW0xoj-260" value="" style="rounded=0;whiteSpace=wrap;html=1;strokeColor=#000000;" parent="1" vertex="1">
          <mxGeometry x="200" y="105" width="40" height="15" as="geometry" />
        </mxCell>
        <mxCell id="kqCt5Rrw21ZmypZW0xoj-261" value="" style="rounded=0;whiteSpace=wrap;html=1;strokeColor=#000000;" parent="1" vertex="1">
          <mxGeometry x="200" y="120" width="40" height="15" as="geometry" />
        </mxCell>
        <mxCell id="kqCt5Rrw21ZmypZW0xoj-264" value="" style="rounded=0;whiteSpace=wrap;html=1;strokeColor=#000000;" parent="1" vertex="1">
          <mxGeometry x="200" y="135" width="40" height="15" as="geometry" />
        </mxCell>
        <mxCell id="kqCt5Rrw21ZmypZW0xoj-265" value="" style="rounded=0;whiteSpace=wrap;html=1;strokeColor=#000000;" parent="1" vertex="1">
          <mxGeometry x="200" y="150" width="40" height="15" as="geometry" />
        </mxCell>
        <mxCell id="kqCt5Rrw21ZmypZW0xoj-266" value="" style="rounded=0;whiteSpace=wrap;html=1;fillColor=#f8cecc;strokeColor=#000000;" parent="1" vertex="1">
          <mxGeometry x="200" y="165" width="40" height="15" as="geometry" />
        </mxCell>
        <mxCell id="kqCt5Rrw21ZmypZW0xoj-267" value="" style="rounded=0;whiteSpace=wrap;html=1;strokeColor=#000000;" parent="1" vertex="1">
          <mxGeometry x="200" y="180" width="40" height="15" as="geometry" />
        </mxCell>
        <mxCell id="kqCt5Rrw21ZmypZW0xoj-269" value="" style="rounded=0;whiteSpace=wrap;html=1;fillColor=#f8cecc;strokeColor=#000000;" parent="1" vertex="1">
          <mxGeometry x="200" y="195" width="40" height="15" as="geometry" />
        </mxCell>
        <mxCell id="kqCt5Rrw21ZmypZW0xoj-270" value="" style="rounded=0;whiteSpace=wrap;html=1;strokeColor=#000000;" parent="1" vertex="1">
          <mxGeometry x="200" y="210" width="40" height="15" as="geometry" />
        </mxCell>
        <mxCell id="kqCt5Rrw21ZmypZW0xoj-271" value="" style="rounded=0;whiteSpace=wrap;html=1;strokeColor=#000000;" parent="1" vertex="1">
          <mxGeometry x="200" y="225" width="40" height="15" as="geometry" />
        </mxCell>
        <mxCell id="kqCt5Rrw21ZmypZW0xoj-273" value="" style="rounded=0;whiteSpace=wrap;html=1;strokeColor=#000000;" parent="1" vertex="1">
          <mxGeometry x="200" y="240.5" width="40" height="15" as="geometry" />
        </mxCell>
        <mxCell id="kqCt5Rrw21ZmypZW0xoj-274" value="" style="rounded=0;whiteSpace=wrap;html=1;fillColor=#f8cecc;strokeColor=#000000;" parent="1" vertex="1">
          <mxGeometry x="200" y="255.5" width="40" height="15" as="geometry" />
        </mxCell>
        <mxCell id="kqCt5Rrw21ZmypZW0xoj-275" value="" style="rounded=0;whiteSpace=wrap;html=1;strokeColor=#000000;" parent="1" vertex="1">
          <mxGeometry x="200" y="270.5" width="40" height="15" as="geometry" />
        </mxCell>
        <mxCell id="kqCt5Rrw21ZmypZW0xoj-276" value="" style="rounded=0;whiteSpace=wrap;html=1;strokeColor=#000000;" parent="1" vertex="1">
          <mxGeometry x="200" y="285.5" width="40" height="15" as="geometry" />
        </mxCell>
      </root>
    </mxGraphModel>
  </diagram>
</mxfile>
